# xmcd
#
# Track frame offsets: 
#        183
#        43370
#        98883
#        116670
#        139720
#        180520
#        209120
#        222070
#
# Disc length: 3135 seconds
#
# Revision: 1
# Processed by: cddbd v1.5.2PL0 Copyright (c) Steve Scherf et al.
# Submitted via: ExactAudioCopy v1.0b3
#
DISCID=7a0c3d08
DTITLE=Hogwood, Academy of Ancient Music - Symphonien Nr. 52 and 64 'Tem
DTITLE=pora mutantur'
DYEAR=1993
DGENRE=Symphonie
TTITLE0=Haydn, Franz Joseph - Symphony No.52 in C minor - 1. Allegro a
TTITLE0=ssai con brio
TTITLE1=Haydn, Franz Joseph - Symphony No.52 in C minor - 2. Andante
TTITLE2=Haydn, Franz Joseph - Symphony No.52 in C minor - 3. Menuetto.
TTITLE2=Allegretto - Trio
TTITLE3=Haydn, Franz Joseph - Symphony No.52 in C minor - 4. Finale. P
TTITLE3=resto
TTITLE4=Haydn, Franz Joseph - Symphony No.64 in A major 'Tempora mutan
TTITLE4=tur' - 1. Allegro con spirito
TTITLE5=Haydn, Franz Joseph - Symphony No.64 in A major 'Tempora mutan
TTITLE5=tur' - 2. Largo
TTITLE6=Haydn, Franz Joseph - Symphony No.64 in A major 'Tempora mutan
TTITLE6=tur' - 3. Menuet: Allegretto - Trio
TTITLE7=Haydn, Franz Joseph - Symphony No.64 in A major 'Tempora mutan
TTITLE7=tur' - 4. Finale. Presto
EXTD=
EXTT0=
EXTT1=
EXTT2=
EXTT3=
EXTT4=
EXTT5=
EXTT6=
EXTT7=
PLAYORDER=
